<?xml version="1.0" standalone="no"?>
<!DOCTYPE svg PUBLIC "-//W3C//DTD SVG 20010904//EN"
 "http://www.w3.org/TR/2001/REC-SVG-20010904/DTD/svg10.dtd">
<svg version="1.0" xmlns="http://www.w3.org/2000/svg"
 width="756.000000pt" height="756.000000pt" viewBox="0 0 756.000000 756.000000"
 preserveAspectRatio="xMidYMid meet">
<metadata>
Created by potrace 1.16, written by Peter Selinger 2001-2019
</metadata>
<g transform="translate(0.000000,756.000000) scale(0.100000,-0.100000)"
fill="#000000" stroke="none">
<path d="M2437 7123 c-4 -3 -7 -181 -7 -395 l0 -388 1175 0 1175 0 0 395 0
395 -1168 0 c-643 0 -1172 -3 -1175 -7z m383 -353 c26 -26 25 -46 -5 -75 -20
-21 -34 -25 -87 -25 -74 0 -108 18 -108 57 0 48 25 63 107 63 60 0 77 -4 93
-20z m424 4 c9 -8 16 -28 16 -44 0 -42 -32 -60 -105 -60 -73 0 -105 18 -105
60 0 47 22 60 105 60 54 0 78 -4 89 -16z m430 -3 c25 -27 17 -72 -14 -88 -14
-7 -50 -13 -81 -13 -68 0 -101 21 -101 65 0 42 25 55 107 55 58 0 75 -4 89
-19z"/>
<path d="M6595 6412 c-101 -35 -195 -108 -246 -191 -104 -171 -65 -416 86
-549 257 -226 661 -78 717 262 22 132 -24 269 -122 367 -89 90 -185 129 -315
129 -40 -1 -92 -8 -120 -18z"/>
<path d="M2430 5830 l0 -390 1175 0 1175 0 0 390 0 390 -1175 0 -1175 0 0
-390z m389 33 c23 -28 20 -59 -7 -80 -9 -8 -44 -13 -82 -13 -78 0 -110 17
-110 60 0 43 31 60 111 60 61 0 70 -3 88 -27z m419 11 c26 -18 29 -60 5 -86
-13 -14 -31 -18 -86 -18 -80 0 -107 15 -107 61 0 41 32 59 105 59 39 0 69 -6
83 -16z m430 0 c26 -18 29 -60 5 -86 -13 -14 -31 -18 -87 -18 -77 0 -87 4
-105 38 -13 25 -2 54 27 71 27 16 134 13 160 -5z"/>
<path d="M5040 6042 c-28 -22 -30 -70 -4 -89 14 -10 128 -13 576 -13 l558 0 0
60 0 60 -554 0 c-520 0 -555 -1 -576 -18z"/>
<path d="M402 5378 l3 -393 955 0 955 0 3 393 2 392 -960 0 -960 0 2 -392z
m376 46 c14 -10 22 -26 22 -44 0 -47 -22 -60 -101 -60 -89 0 -109 10 -109 55
0 47 29 65 105 65 39 0 69 -6 83 -16z m430 0 c26 -18 29 -60 5 -86 -25 -27
-155 -26 -183 2 -26 26 -25 46 5 75 20 21 34 25 87 25 41 0 71 -5 86 -16z
m432 -4 c24 -24 26 -57 3 -82 -25 -27 -155 -26 -183 2 -50 50 -2 100 96 100
51 0 68 -4 84 -20z"/>
<path d="M6666 5442 c-3 -3 -6 -222 -6 -486 0 -527 0 -529 56 -534 66 -6 64
-24 64 528 l0 499 -54 0 c-30 -1 -57 -4 -60 -7z"/>
<path d="M2432 4928 l3 -393 879 -3 878 -2 62 49 c133 106 319 208 458 253
l68 22 0 233 0 233 -1175 0 -1175 0 2 -392z m390 32 c18 -23 17 -51 -4 -77
-16 -20 -157 -17 -180 4 -21 19 -23 52 -5 75 16 21 28 24 105 22 55 -1 69 -5
84 -24z m426 8 c20 -17 15 -76 -7 -88 -33 -17 -157 -13 -176 6 -22 23 -16 76
11 89 25 12 154 7 172 -7z m428 1 c19 -16 18 -64 -2 -84 -13 -12 -33 -15 -97
-13 -78 3 -82 4 -95 30 -15 33 -3 65 31 77 30 11 146 4 163 -10z"/>
<path d="M400 4475 l0 -395 960 0 960 0 0 395 0 395 -960 0 -960 0 0 -395z
m384 39 c19 -18 21 -65 4 -82 -16 -16 -170 -16 -186 0 -7 7 -12 26 -12 43 0
47 15 55 101 55 57 0 82 -4 93 -16z m430 0 c21 -20 20 -58 0 -79 -13 -12 -33
-15 -97 -13 -76 3 -82 5 -96 29 -13 24 -13 29 2 53 16 24 22 26 97 26 58 0 83
-4 94 -16z m428 -1 c23 -21 23 -55 -1 -77 -15 -13 -34 -16 -97 -14 -73 3 -79
5 -93 29 -13 24 -13 29 2 53 16 24 22 26 94 26 57 0 81 -4 95 -17z"/>
<path d="M5140 4803 c-101 -7 -251 -37 -351 -69 -416 -134 -757 -455 -914
-862 -147 -381 -128 -817 51 -1175 69 -139 146 -249 253 -360 213 -223 458
-361 762 -429 89 -20 131 -23 294 -23 209 0 294 12 457 65 225 74 405 186 579
359 213 214 341 451 406 752 26 120 26 439 0 559 -30 137 -75 268 -134 382
-232 455 -667 750 -1178 798 -107 10 -131 10 -225 3z m393 -306 c215 -57 378
-150 537 -307 117 -115 171 -189 235 -319 79 -161 113 -294 122 -477 27 -593
-381 -1108 -972 -1225 -103 -21 -349 -18 -455 5 -560 120 -950 599 -950 1167
0 336 127 631 371 864 166 159 349 254 584 305 134 29 390 23 528 -13z"/>
<path d="M5105 4409 c-369 -47 -703 -298 -851 -638 -121 -281 -117 -606 11
-878 59 -126 106 -193 203 -295 140 -146 299 -240 498 -295 91 -25 114 -28
274 -28 188 1 252 12 399 69 307 121 546 391 637 718 32 115 43 326 24 446
-76 479 -463 848 -943 901 -109 12 -152 12 -252 0z m175 -529 c23 -23 25 -49
6 -75 -10 -13 -32 -21 -82 -26 -214 -23 -381 -183 -400 -384 -8 -82 -13 -95
-40 -105 -26 -10 -61 1 -76 24 -22 32 9 184 56 281 40 80 129 178 200 220 128
75 294 107 336 65z"/>
<path d="M2437 4413 c-4 -3 -7 -181 -7 -395 l0 -388 627 2 626 3 23 90 c58
232 166 447 312 622 29 34 52 65 52 68 0 7 -1625 6 -1633 -2z m381 -345 c24
-31 23 -57 -3 -84 -24 -24 -31 -26 -97 -22 -74 4 -98 19 -98 62 0 42 28 56
110 56 50 0 81 -4 88 -12z m427 -4 c10 -10 15 -29 13 -48 -4 -39 -35 -56 -103
-56 -68 0 -99 17 -103 56 -5 50 18 64 103 64 55 0 78 -4 90 -16z m427 -1 c21
-19 23 -52 4 -78 -21 -29 -142 -34 -175 -8 -29 23 -31 71 -5 90 27 20 153 17
176 -4z"/>
<path d="M400 3570 l0 -390 1175 0 1175 0 0 165 0 165 -193 0 c-158 0 -197 3
-215 16 -22 15 -22 19 -22 225 l0 209 -960 0 -960 0 0 -390z m382 43 c10 -9
18 -29 18 -44 0 -41 -32 -59 -105 -59 -71 0 -105 18 -105 57 0 48 25 63 103
63 52 0 75 -4 89 -17z m430 0 c10 -9 18 -29 18 -44 0 -41 -32 -59 -108 -59
-54 0 -66 4 -88 25 -27 27 -26 59 4 83 25 19 151 16 174 -5z m430 0 c24 -22
23 -58 -3 -84 -19 -19 -30 -21 -96 -17 -60 3 -78 7 -89 23 -19 26 -17 52 6 75
27 27 153 29 182 3z"/>
<path d="M400 2671 c0 -344 2 -390 16 -395 8 -3 536 -5 1172 -3 l1157 2 3 393
2 392 -1175 0 -1175 0 0 -389z m378 43 c14 -10 22 -26 22 -44 0 -47 -22 -60
-105 -60 -83 0 -105 13 -105 60 0 42 32 60 105 60 39 0 69 -6 83 -16z m430 0
c26 -18 29 -60 5 -86 -13 -14 -31 -18 -88 -18 -76 0 -98 10 -110 47 -4 17 1
29 19 48 22 21 34 25 88 25 41 0 71 -5 86 -16z m432 -4 c24 -24 26 -57 3 -82
-25 -27 -155 -26 -183 2 -23 23 -26 49 -7 72 17 22 33 26 105 27 49 1 66 -3
82 -19z"/>
<path d="M6352 2222 l-94 -95 334 -335 c352 -353 385 -380 454 -368 73 14 123
90 109 164 -6 32 -55 85 -353 385 -190 191 -349 346 -352 346 -3 -1 -47 -44
-98 -97z"/>
<path d="M1510 2020 c-19 -19 -20 -33 -20 -340 l0 -320 60 0 60 0 0 323 c0
301 -1 325 -18 340 -25 23 -58 21 -82 -3z"/>
<path d="M1430 1221 c-79 -25 -117 -47 -171 -98 -95 -89 -139 -190 -139 -318
0 -128 42 -226 133 -313 258 -244 674 -99 727 254 20 131 -26 269 -121 363
-113 114 -285 158 -429 112z"/>
<path d="M2100 805 l0 -55 1185 0 c1161 0 1185 0 1195 19 14 28 12 57 -6 75
-14 14 -136 16 -1195 16 l-1179 0 0 -55z"/>
</g>
</svg>
