<svg id="Layer_1" data-name="Layer 1" xmlns="http://www.w3.org/2000/svg" viewBox="0 0 1168.6 1334.31"><defs><style>.cls-1{fill:#abb8c0;}.cls-2{fill:#81989f;}.cls-3{fill:#8ea5af;}.cls-4{fill:#e5e9ec;}.cls-5{fill:#b9c8d0;}.cls-6{fill:#45ac4e;}.cls-7{fill:#3c9443;}.cls-8{fill:#fff;}.cls-9{fill:#54aa5c;}</style></defs><title>Oracle_SQL_Developer-Logo.wine</title><path class="cls-1" d="M970,218.2q.06,25.41.1,50.81.09,112.62.17,225.22c1.75,3.82.69,7.8.7,11.72-7,36.48-31.3,61.23-58.43,83.27-32.91,26.75-71.15,44.22-110.59,59.09-68.48,25.82-139.76,38.89-212.22,46.44-51.12,5.33-102.46,5.91-153.67,3.86-54.56-2.18-108.89-8.3-162.32-20.33-4.32-1-11.69,1-11.47-7.55,2.76-4.85,2.75-10.18,2.75-15.51q0-119.1.05-238.2a42.41,42.41,0,0,0-3.27-17.44c1.3-3.95,4.57-3.31,7.58-3.28,33.21,9.07,67.28,13.2,101.37,16.87,46.36,5,92.92,7.69,139.53,6.12,105.08-3.56,208.34-17.52,306.72-57.22,40.79-16.46,78.89-37.57,110.58-68.5,19.6-19.12,34.65-41.36,38.18-69.62C966.06,221.43,966.3,218.42,970,218.2Z"/><path class="cls-2" d="M970,218.2c-.51.85-1.43,1.67-1.47,2.53-.83,23.41-12.14,42.19-25.8,60.18-13.27,17.48-30.21,30.68-48,43-38.31,26.65-80.88,44.25-125.11,58.14A760.08,760.08,0,0,1,667.3,406.56c-24.15,4-48.29,7.62-72.68,9.94-20.47,1.95-41,2.47-61.44,4.17a591,591,0,0,1-77.68,1c-17.46-.84-35.1,0-52.54-3-8.73-1.51-17.79-1.21-26.71-2.09-26.35-2.6-52.52-6.33-78.6-10.79-6.19-1.05-12.37-2.23-18.46-3.71-3.13-.76-6.64-1-8.95-3.79,7.11-11.52,18.44-18.9,28.14-27.72,17.2-15.65,34.58-31.12,51.74-46.82,27-24.67,54.52-48.71,81.29-73.59,23.86-22.17,48.23-43.78,72.37-65.63q36.59-33.12,73.25-66.14,35.84-32.47,71.78-64.81c12.8-11.46,24-24.94,39.4-33.34,15.95,1.51,31.25,6.15,46.64,10.14C779.05,41.79,822,56.77,862.34,78.41c27.41,14.69,53,32,74.06,55.14,16.4,18,28.53,38.33,32.74,62.79C970.4,203.63,970.25,210.9,970,218.2Z"/><path class="cls-3" d="M688.21,20.18c-7.28,9.12-16.57,16.29-25.33,23.68C653,52.21,644,61.49,634.18,69.91,623.91,78.72,614,88.16,603.85,97.18,587,112.14,571,128,553.49,142.24c-8.21,6.67-15.62,14.37-23.37,21.59-10,9.27-20.15,18.33-30.29,27.34-16.08,14.31-31.37,29.49-48.2,43-9,7.24-17,15.79-25.51,23.69-10.68,10-21.73,19.51-32.35,29.53-17.09,16.14-35.13,31.27-52.58,47-8.37,7.55-16.47,15.41-24.77,23-10.75,9.87-22.28,18.89-32.28,29.62-4,4.31-9.23,7.48-13.9,11.17l-8.05,0c-4.2,2.88-8.52.82-12.51-.16-56.87-14-112-32.54-162.12-63.6C66,321.17,45.62,306.27,29.26,286.39,13.28,267,.9,246.23.47,220.17-1.94,185.93,11.93,158,34.25,133.39c21.34-23.48,47.34-40.84,75.14-55.61,47.39-25.18,98-41.37,150.11-53.39C297.11,15.7,335.21,10,373.61,5.85A1080.15,1080.15,0,0,1,527.24.74c39.21,1.38,78.34,4.64,117.17,10.89,13.13,2.11,26.19,4.56,39.33,6.63A7.07,7.07,0,0,1,688.21,20.18Z"/><path class="cls-1" d="M701.79,1288c-29.59,6.14-59.33,11.23-89.41,14.6-24.45,2.73-48.94,4.47-73.47,6.17s-49.26,1.37-73.88,1.32c-30.26-.06-60.4-2.59-90.53-5.49-32.44-3.13-64.54-8.23-96.49-14.43-3.26-.64-6.47-1.52-9.71-2.29-3.41-4.21-3.34-9.25-3.34-14.25q0-121.73,0-243.44c0-7.79-.29-15.89,10.29-17.52,4.71-.89,9.24.42,13.81,1.26a1135,1135,0,0,0,168.37,17.87c33.62,1.08,67.05-2.53,100.55-.74,5.74,1.75,4.44,6.75,4.72,10.81,2.43,34.43,8.61,68,21.76,100.14q34.47,84.14,109,136.11C697,1280.58,702.53,1281.8,701.79,1288Z"/><path class="cls-4" d="M701.79,1288c-6.85-7.33-16-11.6-23.75-17.77a316.78,316.78,0,0,1-78.3-90.72,293.39,293.39,0,0,1-30.09-74.58,298.61,298.61,0,0,1-7.76-44c-.95-9.6-1.63-19.15-1.8-28.77-4.26-5.29-2.56-11.28-2.06-17.13,2.82-8.42.86-17.21,2.06-25.8,9.88-70.84,40-131.63,91.52-181.18,52-50,114.34-78,186.39-84.93,40.49-3.88,79.69,1.34,118.42,12.52,10.06,2.9,10.93,2.38,10.92-8.14,0-67.31.2-134.62-.09-201.94.4-6.42.71-12.86,2.66-19.06q.18-6.15.35-12.3c3.31,3.36,1.84,7.59,1.84,11.42q.17,112.43.13,224.86c0,2.33.15,4.67,0,7-.4,5.07,1.69,7.53,6.67,9.4,21.25,8,40.88,19.15,59.42,32.22,10.58,7.46,20.38,15.86,30.29,24.18,19,16,34.62,34.91,48.27,55.22a312.54,312.54,0,0,1,45.56,106.58c6.76,29.92,6.91,60.09,5.42,90.2-1.41,28.54-8.39,56.35-18.82,83.06-12.68,32.44-30,62.42-53,88.54-25.13,28.61-54.1,52.85-88.2,70.67a310.83,310.83,0,0,1-82.2,29.66c-13.56,2.77-27.3,5.76-41.32,4.93-6.45-.38-12.39,2.87-18.75,2-13.45-1.82-27-1.89-40.52-3.53A285.23,285.23,0,0,1,769,1318c-18.26-6.1-36.16-13.26-52.65-23.54C711.86,1291.69,707.19,1288.88,701.79,1288Z"/><path class="cls-5" d="M276.1,1014.46c-5.28,1.79-8.16,4.25-8.13,11,.37,87.46.29,174.92.33,262.38-21.78-5.83-43.82-10.63-65.35-17.47-51.63-16.38-101-37.35-144-71-25.32-19.79-45.68-43.47-55-75.09-2.06-7-3.73-14.11-3.73-21.49q0-127.8,0-255.61c0-1.66.2-3.32.3-5a2.47,2.47,0,0,1,2.85.11c5.8,9,7.4,19.79,12.63,29.11,16.27,29,40.57,50,67.91,67.71,52.95,34.32,111.77,54.1,172.61,68.74C263.23,1009.52,270.49,1009.59,276.1,1014.46Z"/><path class="cls-5" d="M.47,220.17c3.15,3.29,1.44,7.64,2.38,11.44C7.66,251,17.19,267.82,29.93,283.09c21.63,25.94,48.95,44.32,78.28,60.24,38.7,21,79.72,35.85,122.2,47,10.56,2.78,21.1,5.58,31.78,7.9,4.44,2.29,6.18,5.47,6.16,10.91q-.35,127.21-.14,254.44c0,4.44.54,9.09-6.15,8.75-3.22,3-6.89,1.7-10.37.87-63.79-15.23-125-36.75-179.42-74.51-26.59-18.44-49.55-40.09-63.74-69.88A58.87,58.87,0,0,1,3,509.2c.14,6.85,3.63,13.64.13,20.52a1.91,1.91,0,0,1-2.7.52C.34,516.62.24,503,.23,489.37q0-131.62,0-263.24C.19,224.15.37,222.16.47,220.17Z"/><path class="cls-5" d="M.4,530.24H2c2.19,1.43,2.56,3.8,3,6.06,6.63,33.08,26.46,57.6,51.59,78.38,45.74,37.83,99.51,59.66,155.51,76.75,15.58,4.75,31.29,9.12,47.21,12.64,4,.88,7.68,2.27,10,6,2.22,4.34,2.12,9,2.12,13.69q.09,120.27,0,240.55c0,3.65.05,7.32-.92,10.88-2.17,6.3-7.15,4.74-11.68,4-15.46-2.67-30.51-7.16-45.47-11.67-47-14.18-92.66-31.78-134-59-26.37-17.37-50-37.67-66.25-65.37-4.22-7.2-8.06-14.59-9.29-22.51.41,6.94,3.07,14.52-1.54,21.6H.55C-.53,825,.31,807.7.32,790.42Q.35,660.33.4,530.24Z"/><path class="cls-2" d="M266.18,708.32c-28.79-6.56-57.29-14.22-85.1-24.18-41.43-14.84-81.19-33-116.59-59.69-20.92-15.78-39-34.11-51.51-57.31C6.85,555.75,2.41,543.5,2,530.24V508.36a218.75,218.75,0,0,0,16.14,32.78C31.26,562.82,49.57,579.55,70,594.06c45.46,32.34,96.18,53.28,149.64,68.1,11.49,3.19,23,6.09,34.61,9,2.55.64,5.22.81,7.83,1.2,11.19,4.21,23.05,5.54,34.67,7.67,20.82,3.82,41.73,7.46,62.76,9.68,10.17,1.08,20.63,1.45,30.65,3,13.87,2.1,28-.24,41.61,3.32,1.88.49,4,.18,6,.18,31.66,0,63.35.9,94.95-.39,14.13-.58,28.46-.63,42.59-3.12,8.09-1.41,16.48-1.38,24.73-2.17a918.86,918.86,0,0,0,98.07-15.22A757.18,757.18,0,0,0,777.84,654a547,547,0,0,0,95.06-41.24,249.76,249.76,0,0,0,70.21-56.82c10.55-12.36,19.34-26.23,23.2-42.5.63-2.61,1.41-5.12,3.6-6.91q0,9.83,0,19.64c-.17,42.64-25.63,70.92-55.94,95.48-43.91,35.56-95.2,56.86-148.75,73.25C709,712.11,651.42,722.58,593,728.58c-53.07,5.44-106.4,6.17-159.58,4A922.67,922.67,0,0,1,281,713.93C275.69,712.82,270.58,711.58,266.18,708.32Z"/><path class="cls-2" d="M2.3,842.23V811.92c4.94,12.81,9.14,23.38,15,33.33,9.64,16.39,23.06,29.26,37,41.51,19.53,17.2,42,30.36,65.21,41.85A541.76,541.76,0,0,0,200,960.52c22.5,6.94,45,13.69,68.25,17.77,5.38-1.88,10.57-.1,15.74,1,85,17.62,171.14,19.56,257.51,17.76,1,0,2-.11,3-.19,18-1.51,18.28-1.21,16,17.56q-.15,8.9-.31,17.8c-1.87.63-3.73,1.29-5.62,1.85a7.32,7.32,0,0,1-2,.08c-21.21.24-42.41,1-63.61,1.61-22.14.68-44.41-.89-66.57-2-27-1.29-54-4.47-80.84-7.94-21.92-2.83-43.73-6.67-65.36-11.38-19.37-3.11-38.21-8.37-57.05-13.69a580.24,580.24,0,0,1-91.45-34.13c-35-16.66-67.75-37.07-94-66.23C19.4,884.69,8.32,867.05,3.76,846A23,23,0,0,0,2.3,842.23Z"/><path class="cls-6" d="M1114.37,974c4,9.69,4.57,20.09,5.4,30.25,3.85,47-2.52,92.48-23.69,135-37.48,75.34-97,124-179.66,140.69-91.33,18.38-170.94-7.12-236.31-73.38-41.61-42.17-64.6-93.83-70.32-153-2.67-27.71-1.95-55.15,4.46-82.33a21.74,21.74,0,0,1,1.55-3.59c.28.17.79.34.79.52,0,1,.95,1.33,1,.63,1-7.37,2.14-14.65,6.86-20.78,5.2-2.82,4.1-8.36,5.53-12.82,9.49-25.42,25.29-46.85,43.37-66.57,35.93-39.18,80.25-64.64,131.69-77.36,18.36-4.55,37.17-5.77,56.32-6.06,26.68-.4,52.52,2.48,77.8,10.25,56.64,17.39,102.71,49.76,137.08,98.33,17.09,24.16,30.35,50.07,36.61,79.22C1113,973.57,1113.59,973.89,1114.37,974Z"/><path class="cls-1" d="M560.4,1014.39c-.08-2.66-.17-5.32-.23-8-.19-8.3-1.11-9.2-9.52-7.23a47,47,0,0,1-10.86,1q-48.94.08-97.88.08c-18.58,0-37-2.26-55.49-3.63-15.2-1.13-30.28-3.18-45.43-4.65-13.14-1.27-26.15-3.93-39.18-6.18-9.77-1.69-19.47-3.76-29.22-5.56-1.69-.31-3.26-.54-4.39-2V720.9c0-4.3.55-8.69-2-12.58,15.94,2.94,31.84,6.1,47.82,8.75,12.4,2.06,25,3.13,37.33,5.28,16.34,2.84,33,2.92,49.3,5.56,1.31.21,2.65.16,4,.26,36.87,2.74,73.8,1.76,110.71,2.24,17.34.22,34.58-1.32,51.72-2.64,37.91-2.91,75.65-7.53,113.07-14.92,38.5-7.59,76.35-17.24,113.34-30.21,44.18-15.49,86.09-35.69,122.26-65.71,24.29-20.16,44.38-44,51.56-76.32,1.07-4.81-.77-10.14,2.68-14.44.11,15.65.29,31.3.3,47q.06,77.94,0,155.87c0,2.67-.06,5.33,0,8,.07,4.74-2.09,5.66-6.34,4.18a285.11,285.11,0,0,0-45.26-11.68c-8.8-1.52-17.6-3.52-26.6-3.26-7.36.22-14.4-2-21.8-2-54.89.16-106.73,12.43-154.61,39.5a303,303,0,0,0-90.78,78.19,308.56,308.56,0,0,0-48.28,89c-8.5,24.44-14.65,49.65-14.45,75.91C562.15,1009.45,562.45,1012.21,560.4,1014.39Z"/><path class="cls-7" d="M626.13,948.22c-4.14,6.47-4.67,14.38-8.19,21-1.62,3-1.27-1.14-2.14-1.61,4.27-23.22,13.41-44.69,25.25-64.82,42.72-72.57,105.79-116.33,189.23-127.93,129.3-18,251,65,282.78,191.28.64,2.56.88,5.22,1.31,7.83-.55.75,0,3.26-1.88,1.78-1.09-.86-1.28-3-1.68-4.59-8.24-33.6-25.27-62.88-46.6-89.41-28.61-35.61-64.84-61.31-107.65-77.78-21.14-8.14-43-12.58-65.27-15.88-11-1.62-21.76,1.6-32.52,0-15.71-2.26-30.8,1.51-46,4.12-18.38,3.17-35.85,9.54-52.87,17.12a252.18,252.18,0,0,0-86.44,62.82c-17,19.08-32.32,39.56-41.32,64C630.26,940.22,629.11,944.68,626.13,948.22Z"/><path class="cls-8" d="M780.17,1150.33c-2.34-1.68-1.62-4.2-1.62-6.42q-.06-115.42,0-230.84c0-1.24.26-2.48.56-5.28l215.11,120.35c-2.21,4.83-7.58,4.68-10,8.07-1,3.67-4.36,4.79-7.22,6.37-62.4,34.67-124.41,70-186.79,104.72C787.09,1149,784.29,1151.91,780.17,1150.33Z"/><path class="cls-7" d="M780.17,1150.33q100.62-56.58,201.24-113.12a18.35,18.35,0,0,1,2.78-1c1.58.48,3.2.85,4.72,1.47,1.85.76,4.06,1.58,4.38,3.72.47,3.09-2.61,3.46-4.48,4.51-36,20-72,39.95-107.92,60.07-29.83,16.7-59.5,33.68-89.28,50.47-3.7,2.08-7.64,3.76-11.46,5.62C776.75,1157.55,778.51,1153.94,780.17,1150.33Z"/><path class="cls-9" d="M626.13,948.22a24.36,24.36,0,0,1,6.06-12.08C631.75,941,631.5,945.87,626.13,948.22Z"/></svg>