<svg xmlns="http://www.w3.org/2000/svg" width="120" height="120" fill="none"><circle cx="60" cy="60" r="60" fill="url(#ow68im6g2a)"/><circle cx="60" cy="60" r="59" stroke="url(#kh0xw4b15b)" stroke-width="2"/><ellipse cx="60" cy="113.5" fill="url(#sawp5e84kc)" opacity=".3" rx="47" ry="3.5"/><path fill="url(#lrln5w8z8d)" d="M20.4 59.853 37.674 6.742l17.272 53.111-17.272 53.112L20.4 59.853z"/><path fill="url(#h5frykf1me)" d="M20.4 59.853 37.674 6.742l17.272 53.111-17.272 53.112L20.4 59.853z" opacity=".6"/><path fill="#16233A" d="m26.158 59.853 11.515-35.408 11.514 35.408L37.674 95.26 26.158 59.853z"/><path stroke="#fff" stroke-width="1.295" d="m31.916 59.852 5.757-17.704 5.757 17.704-5.757 17.704-5.758-17.704z"/><path fill="url(#8mx8nqawxf)" d="M5 59.855h15.4l17.273 53.112H22.272L5 59.855z"/><path fill="url(#fe3udwpoxg)" d="M5 59.855h15.4l17.273 53.112H22.272L5 59.855z" opacity=".3"/><path fill="url(#k3fpn3rrqh)" d="M37.673 6.742 20.4 59.853H5L22.272 6.742h15.4z"/><path fill="url(#8a7rohtd4i)" d="M37.673 6.742 20.4 59.853H5L22.272 6.742h15.4z"/><path fill="url(#t1t3dsq4wj)" d="M37.673 6.742 20.4 59.853H5L22.272 6.742h15.4z"/><path stroke="url(#kbnoriclik)" stroke-width=".5" d="M5 60h15.5"/><path fill="url(#vdfptw5afl)" d="M45.4 59.853 62.674 6.742l17.272 53.111-17.272 53.112L45.4 59.853z"/><path fill="url(#8pt8spx8wm)" d="M45.4 59.853 62.674 6.742l17.272 53.111-17.272 53.112L45.4 59.853z" opacity=".6"/><path fill="#16233A" d="m51.158 59.853 11.514-35.408 11.515 35.408L62.672 95.26 51.158 59.853z"/><g filter="url(#xm310wmidn)"><path stroke="#fff" stroke-width="1.295" d="m56.915 59.852 5.757-17.704 5.758 17.704-5.758 17.704-5.757-17.704z" shape-rendering="crispEdges"/></g><path fill="url(#mo6h4gdgao)" d="M30 59.855h15.4l17.272 53.112h-15.4L29.998 59.855z"/><path fill="url(#7udmnmaulp)" d="M30 59.855h15.4l17.272 53.112h-15.4L29.998 59.855z" opacity=".3"/><path fill="url(#fxzr7b95jq)" d="M62.672 6.742 45.4 59.853H30L47.27 6.742h15.401z"/><path fill="url(#tzjl45q7ur)" d="M62.672 6.742 45.4 59.853H30L47.27 6.742h15.401z"/><path fill="url(#0dijop0ols)" d="M62.672 6.742 45.4 59.853H30L47.27 6.742h15.401z"/><path stroke="url(#m0kodxqkwt)" stroke-width=".5" d="m62.5 7-17 53 17 53"/><path stroke="url(#9kc9wissou)" stroke-width=".5" d="M30 60h15.5"/><path fill="url(#0bf6nzt40v)" fill-rule="evenodd" d="M76.999 54.996H73.12v1.139H77v-1.14zm-21.618 0H53v1.139h2.382v-1.14zm-1.8 3.99h1.801v1.14h-2.381v-1.14h.58zm3.614 0h-1.02v1.14h1.02v-1.14zm5.45 0h5.346v1.14h-5.345v-1.14zm9.67 0h-3.543v1.14h3.543v-1.14zm.78 0H77v1.14h-3.903v-1.14zm-12.062 0H57.91v1.14h3.123v-1.14zm13.584 3.416H77v1.139h-2.382V62.4zm-.702 0h-1.327v1.139h1.327V62.4zm-11.907 0h4.055v1.139h-4.055V62.4zm-.78 0h-3.544v1.139h3.544V62.4zm-8.228 0h3.543v1.139H53V62.4zm18.731 0h-4.924v1.139h4.924V62.4zm2.886 3.418H77v1.14h-2.382v-1.14zm-.702 0h-1.327v1.14h1.327v-1.14zm-16.23 0h3.542v1.14h-3.543v-1.14zm-1.142 0H53v1.14h3.543v-1.14zm12.426 0h3.123v1.14h-3.123v-1.14zM55.958 54.996h1.352v1.139h-1.352v-1.14zm8.79 0h-2.824v1.139h2.823v-1.14zm4.023 0h3.543v1.139h-3.543v-1.14zm-10.862 0h3.123v1.139h-3.123v-1.14z" clip-rule="evenodd"/><path fill="url(#cnrc7va1aw)" d="M80.4 59.853 97.672 6.742l17.272 53.111-17.272 53.112L80.4 59.853z"/><path fill="url(#ojr578q71x)" d="M80.4 59.853 97.672 6.742l17.272 53.111-17.272 53.112L80.4 59.853z" opacity=".6"/><path fill="#16233A" d="m86.158 59.853 11.514-35.408 11.515 35.408L97.672 95.26 86.158 59.853z"/><g filter="url(#gd37dzvfvy)"><path fill="url(#e3xw0rin4z)" d="m91.915 59.852 5.757-17.704 5.758 17.704-5.758 17.704-5.757-17.704z"/></g><path fill="url(#cjdmnefqaA)" d="M65 59.855h15.4l17.272 53.112h-15.4L64.998 59.855z"/><path fill="url(#6zg7k8etmB)" d="M65 59.855h15.4l17.272 53.112h-15.4L64.998 59.855z" opacity=".3"/><path fill="url(#1zv3q4pfvC)" d="M97.672 6.742 80.4 59.853H65L82.27 6.742h15.401z"/><path fill="url(#a7cm9cj1kD)" d="M97.672 6.742 80.4 59.853H65L82.27 6.742h15.401z" opacity=".2"/><path fill="url(#ayik300cjE)" d="M97.672 6.742 80.4 59.853H65L82.27 6.742h15.401z"/><path stroke="url(#xjklq6b8qF)" stroke-width=".5" d="m97.5 7-17 53 17 53"/><path stroke="url(#n5m0px1alG)" stroke-width=".5" d="M65 60h15.5"/><path fill="url(#16tynso1jH)" fill-rule="evenodd" d="M115.314 54.996h-3.543v1.139h3.543v-1.14zm-19.314 0h2.382v1.139H96v-1.14zm.581 3.99h1.801v1.14H96v-1.14h.581zm3.614 0h-1.02v1.14h1.02v-1.14zm5.451 0h5.345v1.14h-5.345v-1.14zm14.354 0h-3.904v1.14H120v-1.14zm-19.09 0h3.123v1.14h-3.123v-1.14zm16.005 3.416h-1.326v1.139h1.326V62.4zm-16.231 0h3.543v1.139h-3.543V62.4zm-1.141 0H96v1.139h3.543V62.4zm10.264 0h4.924v1.139h-4.924V62.4zm10.192 3.418h-2.382v1.14h2.382v-1.14zm-4.41 0h1.326v1.14h-1.326v-1.14zm-5.236 0h-5.345v1.14h5.345v-1.14zm-9.669 0h3.543v1.14h-3.543v-1.14zm-1.141 0H96v1.14h3.543v-1.14zm.767-10.824h-1.352v1.139h1.352v-1.14zm4.614 0h2.823v1.139h-2.823v-1.14zm-4.015 0h3.123v1.139h-3.123v-1.14z" clip-rule="evenodd"/><path stroke="#D3D9E5" stroke-linejoin="round" stroke-width="2.001" d="m75 90.5-13.053 4.126L44.5 41.999l-24 18"/><circle cx="19.896" cy="59.9" r="14.897" fill="url(#5ei8f9kbuI)" opacity=".7" transform="rotate(180 19.896 59.9)"/><circle cx="20.396" cy="60.034" r="2.525" fill="#fff" transform="rotate(180 20.396 60.034)"/><circle cx="43.731" cy="41.729" r="2.866" fill="#fff" transform="rotate(-158 43.731 41.73)"/><circle cx="62.173" cy="95.152" r="2.602" fill="#fff" transform="rotate(-158 62.173 95.152)"/><defs><linearGradient id="kh0xw4b15b" x1="28.5" x2="97.5" y1="2.5" y2="123" gradientUnits="userSpaceOnUse"><stop stop-color="#9BB0DE"/><stop offset="1" stop-color="#284167"/></linearGradient><linearGradient id="lrln5w8z8d" x1="39.976" x2="38.233" y1="15.24" y2="119.353" gradientUnits="userSpaceOnUse"><stop stop-color="#3B6099"/><stop offset="1" stop-color="#101A2A"/></linearGradient><linearGradient id="h5frykf1me" x1="37.815" x2="38.648" y1="6.722" y2="104.915" gradientUnits="userSpaceOnUse"><stop stop-color="#B0B6C0"/><stop offset="1" stop-color="#2D394B" stop-opacity="0"/></linearGradient><linearGradient id="8mx8nqawxf" x1="8.886" x2="-.811" y1="59.855" y2="111.354" gradientUnits="userSpaceOnUse"><stop stop-color="#2B436F"/><stop offset="1" stop-color="#0F1828"/></linearGradient><linearGradient id="k3fpn3rrqh" x1="5" x2="21" y1="2.5" y2="60" gradientUnits="userSpaceOnUse"><stop stop-color="#6BA0E2"/><stop offset="1" stop-color="#385076"/></linearGradient><linearGradient id="8a7rohtd4i" x1="5" x2="21" y1="2.5" y2="60" gradientUnits="userSpaceOnUse"><stop stop-color="#144581"/><stop offset="1" stop-color="#385076"/></linearGradient><linearGradient id="kbnoriclik" x1="20.956" x2="5" y1="59.514" y2="60" gradientUnits="userSpaceOnUse"><stop stop-color="#77E9FF"/><stop offset="1" stop-color="#77E9FF" stop-opacity="0"/></linearGradient><linearGradient id="vdfptw5afl" x1="64.976" x2="63.233" y1="15.24" y2="119.353" gradientUnits="userSpaceOnUse"><stop stop-color="#3B6099"/><stop offset="1" stop-color="#101A2A"/></linearGradient><linearGradient id="8pt8spx8wm" x1="62.815" x2="63.648" y1="6.722" y2="104.915" gradientUnits="userSpaceOnUse"><stop stop-color="#B0B6C0"/><stop offset="1" stop-color="#2D394B" stop-opacity="0"/></linearGradient><linearGradient id="mo6h4gdgao" x1="33.886" x2="24.188" y1="59.855" y2="111.354" gradientUnits="userSpaceOnUse"><stop stop-color="#2B436F"/><stop offset="1" stop-color="#0F1828"/></linearGradient><linearGradient id="fxzr7b95jq" x1="29.999" x2="45.999" y1="2.5" y2="60" gradientUnits="userSpaceOnUse"><stop stop-color="#6BA0E2"/><stop offset="1" stop-color="#385076"/></linearGradient><linearGradient id="tzjl45q7ur" x1="29.999" x2="45.999" y1="2.5" y2="60" gradientUnits="userSpaceOnUse"><stop stop-color="#144581"/><stop offset="1" stop-color="#385076"/></linearGradient><linearGradient id="m0kodxqkwt" x1="44.999" x2="62.516" y1="58.5" y2="58.494" gradientUnits="userSpaceOnUse"><stop stop-color="#D5DBE6"/><stop offset="1" stop-color="#2E394B" stop-opacity="0"/></linearGradient><linearGradient id="9kc9wissou" x1="45.955" x2="30" y1="59.514" y2="60" gradientUnits="userSpaceOnUse"><stop stop-color="#fff"/><stop offset="1" stop-color="#2E394B" stop-opacity="0"/></linearGradient><linearGradient id="0bf6nzt40v" x1="58" x2="69" y1="62.497" y2="62.497" gradientUnits="userSpaceOnUse"><stop stop-color="#fff" stop-opacity="0"/><stop offset="1" stop-color="#274066"/></linearGradient><linearGradient id="cnrc7va1aw" x1="99.975" x2="98.233" y1="15.24" y2="119.353" gradientUnits="userSpaceOnUse"><stop stop-color="#3B6099"/><stop offset="1" stop-color="#101A2A"/></linearGradient><linearGradient id="ojr578q71x" x1="97.814" x2="98.647" y1="6.722" y2="104.915" gradientUnits="userSpaceOnUse"><stop stop-color="#B0B6C0"/><stop offset="1" stop-color="#2D394B" stop-opacity="0"/></linearGradient><linearGradient id="e3xw0rin4z" x1="97.672" x2="76.97" y1="28.022" y2="28.022" gradientUnits="userSpaceOnUse"><stop stop-color="#fff"/><stop offset="1" stop-color="#2D394B"/></linearGradient><linearGradient id="cjdmnefqaA" x1="68.886" x2="59.188" y1="59.855" y2="111.354" gradientUnits="userSpaceOnUse"><stop stop-color="#2B436F"/><stop offset="1" stop-color="#0F1828"/></linearGradient><linearGradient id="1zv3q4pfvC" x1="64.999" x2="80.999" y1="2.5" y2="60" gradientUnits="userSpaceOnUse"><stop stop-color="#144581"/><stop offset="1" stop-color="#385076"/></linearGradient><linearGradient id="xjklq6b8qF" x1="79.999" x2="97.516" y1="58.5" y2="58.494" gradientUnits="userSpaceOnUse"><stop stop-color="#D5DBE6"/><stop offset="1" stop-color="#2E394B" stop-opacity="0"/></linearGradient><linearGradient id="n5m0px1alG" x1="80.955" x2="64.999" y1="59.514" y2="60" gradientUnits="userSpaceOnUse"><stop stop-color="#fff"/><stop offset="1" stop-color="#2E394B" stop-opacity="0"/></linearGradient><linearGradient id="16tynso1jH" x1="94.999" x2="132" y1="62.497" y2="62.497" gradientUnits="userSpaceOnUse"><stop stop-color="#fff"/><stop offset="1" stop-color="#274066"/></linearGradient><radialGradient id="ow68im6g2a" cx="0" cy="0" r="1" gradientTransform="rotate(78.329 30 36.83) scale(122.533)" gradientUnits="userSpaceOnUse"><stop stop-color="#4A5B7C"/><stop offset="1" stop-color="#0C1321"/></radialGradient><radialGradient id="sawp5e84kc" cx="0" cy="0" r="1" gradientTransform="matrix(0 3.5 -47 0 60 113.5)" gradientUnits="userSpaceOnUse"><stop/><stop offset="1" stop-opacity="0"/></radialGradient><radialGradient id="fe3udwpoxg" cx="0" cy="0" r="1" gradientTransform="matrix(3.99987 48.50205 -57.30387 4.72574 21 62)" gradientUnits="userSpaceOnUse"><stop stop-color="#D5DBE7"/><stop offset="1" stop-color="#181F29" stop-opacity=".5"/></radialGradient><radialGradient id="t1t3dsq4wj" cx="0" cy="0" r="1" gradientTransform="matrix(37.62606 -60.33137 70.73164 44.11226 4.875 59.831)" gradientUnits="userSpaceOnUse"><stop stop-color="#D5DBE7" stop-opacity=".6"/><stop offset="1" stop-color="#233A64"/></radialGradient><radialGradient id="7udmnmaulp" cx="0" cy="0" r="1" gradientTransform="matrix(3.99987 48.50205 -57.30387 4.72574 46 62)" gradientUnits="userSpaceOnUse"><stop stop-color="#D5DBE7"/><stop offset="1" stop-color="#181F29" stop-opacity=".5"/></radialGradient><radialGradient id="0dijop0ols" cx="0" cy="0" r="1" gradientTransform="matrix(37.62606 -60.33137 70.73164 44.11226 29.874 59.83)" gradientUnits="userSpaceOnUse"><stop stop-color="#D5DBE7" stop-opacity=".6"/><stop offset="1" stop-color="#233A64"/></radialGradient><radialGradient id="6zg7k8etmB" cx="0" cy="0" r="1" gradientTransform="matrix(3.99987 48.50205 -57.30387 4.72574 81 62)" gradientUnits="userSpaceOnUse"><stop stop-color="#D5DBE7"/><stop offset="1" stop-color="#181F29" stop-opacity=".5"/></radialGradient><radialGradient id="a7cm9cj1kD" cx="0" cy="0" r="1" gradientTransform="matrix(3.99996 74.5 -90.30573 4.84858 84.5 -19.5)" gradientUnits="userSpaceOnUse"><stop stop-color="#fff"/><stop offset="1" stop-color="#83234B" stop-opacity=".01"/></radialGradient><radialGradient id="ayik300cjE" cx="0" cy="0" r="1" gradientTransform="matrix(37.62606 -60.33137 70.73164 44.11226 64.874 59.83)" gradientUnits="userSpaceOnUse"><stop stop-color="#D5DBE7" stop-opacity=".6"/><stop offset="1" stop-color="#233A64"/></radialGradient><radialGradient id="5ei8f9kbuI" cx="0" cy="0" r="1" gradientTransform="translate(19.894 59.907) scale(10.8985)" gradientUnits="userSpaceOnUse"><stop stop-color="#fff"/><stop offset="1" stop-color="#757575" stop-opacity="0"/></radialGradient><filter id="xm310wmidn" width="24.877" height="51.596" x="50.234" y="34.054" color-interpolation-filters="sRGB" filterUnits="userSpaceOnUse"><feFlood flood-opacity="0" result="BackgroundImageFix"/><feColorMatrix in="SourceAlpha" result="hardAlpha" values="0 0 0 0 0 0 0 0 0 0 0 0 0 0 0 0 0 0 127 0"/><feOffset/><feGaussianBlur stdDeviation="3"/><feComposite in2="hardAlpha" operator="out"/><feColorMatrix values="0 0 0 0 1 0 0 0 0 1 0 0 0 0 1 0 0 0 1 0"/><feBlend in2="BackgroundImageFix" result="effect1_dropShadow_921_33590"/><feBlend in="SourceGraphic" in2="effect1_dropShadow_921_33590" result="shape"/></filter><filter id="gd37dzvfvy" width="23.515" height="47.408" x="85.915" y="36.148" color-interpolation-filters="sRGB" filterUnits="userSpaceOnUse"><feFlood flood-opacity="0" result="BackgroundImageFix"/><feColorMatrix in="SourceAlpha" result="hardAlpha" values="0 0 0 0 0 0 0 0 0 0 0 0 0 0 0 0 0 0 127 0"/><feOffset/><feGaussianBlur stdDeviation="3"/><feColorMatrix values="0 0 0 0 0.819608 0 0 0 0 0.847059 0 0 0 0 0.894118 0 0 0 1 0"/><feBlend in2="BackgroundImageFix" result="effect1_dropShadow_921_33590"/><feBlend in="SourceGraphic" in2="effect1_dropShadow_921_33590" result="shape"/></filter></defs></svg>